<svg xmlns="http://www.w3.org/2000/svg" viewBox="0 0 1024 240"><defs><linearGradient id="bggrad" x1="0" y1="0" x2="1" y2="1"><stop offset="0%" stop-color="#0a1720"/><stop offset="100%" stop-color="#0f2230"/></linearGradient><linearGradient id="linegrad" x1="0" y1="0" x2="1" y2="0"><stop offset="0%" stop-color="#36f0ff" stop-opacity="0.9"/><stop offset="100%" stop-color="#d4b13f" stop-opacity="0.9"/></linearGradient></defs><rect width="1024" height="240" rx="28" fill="url(#bggrad)"/><g opacity="0.18" stroke="#36f0ff" stroke-width="2"><path d="M0 180h1024"/><path d="M0 145h1024"/><path d="M0 110h1024"/><path d="M120 0v240"/><path d="M260 0v240"/><path d="M400 0v240"/><path d="M540 0v240"/><path d="M680 0v240"/><path d="M820 0v240"/></g><path d="M120 156h170l56-48h192l84 48h160" fill="none" stroke="url(#linegrad)" stroke-width="10" stroke-linecap="round" stroke-linejoin="round"/><path d="M276 156l28-36h60l30 36M584 156l22-32h54l26 32" fill="none" stroke="#36f0ff" stroke-width="6" stroke-linecap="round" stroke-linejoin="round" opacity="0.8"/><circle cx="228" cy="164" r="18" fill="#d4b13f" opacity="0.85"/><circle cx="420" cy="164" r="18" fill="#d4b13f" opacity="0.85"/><circle cx="644" cy="164" r="18" fill="#d4b13f" opacity="0.85"/><circle cx="816" cy="164" r="18" fill="#d4b13f" opacity="0.85"/><path d="M736 56h176" stroke="#36f0ff" stroke-width="5" stroke-linecap="round" opacity="0.9"/><path d="M760 82h152" stroke="#d4b13f" stroke-width="5" stroke-linecap="round" opacity="0.85"/><text x="72" y="72" font-family="Arial, sans-serif" font-size="34" fill="#36f0ff" opacity="0.92">FLEET CONTROL</text><text x="72" y="106" font-family="Arial, sans-serif" font-size="18" fill="#cbe8f2" opacity="0.88">Service bays · salvage routing · upgrade prep</text></svg>