{
  "accessors": [
    {
      "bufferView": 2,
      "componentType": 5126,
      "count": 6049,
      "max": [
        23.212020874023438,
        6.553823471069336,
        7.050527572631836
      ],
      "min": [
        10.736530303955078,
        -1.7663040161132813,
        -4.6935272216796875
      ],
      "type": "VEC3"
    },
    {
      "bufferView": 2,
      "byteOffset": 72588,
      "componentType": 5126,
      "count": 6049,
      "max": [
        0.9999854564666748,
        1.0,
        0.9976706504821777
      ],
      "min": [
        -0.9999855160713196,
        -1.0,
        -0.9976707100868225
      ],
      "type": "VEC3"
    },
    {
      "bufferView": 3,
      "componentType": 5126,
      "count": 6049,
      "max": [
        0.9999036192893982,
        0.9999985098838806,
        0.9993362426757813,
        1.0
      ],
      "min": [
        -0.9994258880615234,
        -0.9999986886978149,
        -0.999443769454956,
        1.0
      ],
      "type": "VEC4"
    },
    {
      "bufferView": 1,
      "componentType": 5126,
      "count": 6049,
      "max": [
        0.9635814428329468,
        0.9980080723762512
      ],
      "min": [
        0.0019233226776123047,
        0.00199204683303833
      ],
      "type": "VEC2"
    },
    {
      "bufferView": 0,
      "componentType": 5125,
      "count": 24480,
      "type": "SCALAR"
    }
  ],
  "asset": {
    "extras": {
      "author": "AbsoluteMadLadd (https://sketchfab.com/AbsoluteMadLadd)",
      "license": "CC-BY-4.0 (http://creativecommons.org/licenses/by/4.0/)",
      "source": "https://sketchfab.com/3d-models/tire-pile-28c74702b3dd43f6af55f940d56ff145",
      "title": "Tire Pile"
    },
    "generator": "Sketchfab-12.68.0",
    "version": "2.0"
  },
  "bufferViews": [
    {
      "buffer": 0,
      "byteLength": 97920,
      "name": "floatBufferViews",
      "target": 34963
    },
    {
      "buffer": 0,
      "byteLength": 48392,
      "byteOffset": 97920,
      "byteStride": 8,
      "name": "floatBufferViews",
      "target": 34962
    },
    {
      "buffer": 0,
      "byteLength": 145176,
      "byteOffset": 146312,
      "byteStride": 12,
      "name": "floatBufferViews",
      "target": 34962
    },
    {
      "buffer": 0,
      "byteLength": 96784,
      "byteOffset": 291488,
      "byteStride": 16,
      "name": "floatBufferViews",
      "target": 34962
    }
  ],
  "buffers": [
    {
      "byteLength": 388272,
      "uri": "scene.bin"
    }
  ],
  "images": [
    {
      "uri": "textures/TirePile_baseColor.png"
    },
    {
      "uri": "textures/TirePile_metallicRoughness.png"
    },
    {
      "uri": "textures/TirePile_normal.png"
    }
  ],
  "materials": [
    {
      "doubleSided": true,
      "name": "TirePile",
      "normalTexture": {
        "index": 2
      },
      "pbrMetallicRoughness": {
        "baseColorTexture": {
          "index": 0
        },
        "metallicRoughnessTexture": {
          "index": 1
        }
      }
    }
  ],
  "meshes": [
    {
      "name": "pCylinder26_TirePile_0",
      "primitives": [
        {
          "attributes": {
            "NORMAL": 1,
            "POSITION": 0,
            "TANGENT": 2,
            "TEXCOORD_0": 3
          },
          "indices": 4,
          "material": 0,
          "mode": 4
        }
      ]
    }
  ],
  "nodes": [
    {
      "children": [
        1
      ],
      "matrix": [
        1.0,
        0.0,
        0.0,
        0.0,
        0.0,
        2.220446049250313e-16,
        -1.0,
        0.0,
        0.0,
        1.0,
        2.220446049250313e-16,
        0.0,
        0.0,
        0.0,
        0.0,
        1.0
      ],
      "name": "Sketchfab_model"
    },
    {
      "children": [
        2
      ],
      "matrix": [
        0.009999999776482582,
        0.0,
        0.0,
        0.0,
        0.0,
        0.0,
        0.009999999776482582,
        0.0,
        0.0,
        -0.009999999776482582,
        0.0,
        0.0,
        0.0,
        0.0,
        0.0,
        1.0
      ],
      "name": "3a75c37e6cb641a6899ba1d0631e2861.fbx"
    },
    {
      "children": [
        3
      ],
      "name": "RootNode"
    },
    {
      "children": [
        4
      ],
      "name": "pCylinder26"
    },
    {
      "mesh": 0,
      "name": "pCylinder26_TirePile_0"
    }
  ],
  "samplers": [
    {
      "magFilter": 9729,
      "minFilter": 9987,
      "wrapS": 10497,
      "wrapT": 10497
    }
  ],
  "scene": 0,
  "scenes": [
    {
      "name": "Sketchfab_Scene",
      "nodes": [
        0
      ]
    }
  ],
  "textures": [
    {
      "sampler": 0,
      "source": 0
    },
    {
      "sampler": 0,
      "source": 1
    },
    {
      "sampler": 0,
      "source": 2
    }
  ]
}
